<svg width="17" height="17" viewBox="0 0 17 17" fill="none" xmlns="http://www.w3.org/2000/svg">
<path d="M11.6704 3.83054L13.1706 5.33009L11.6704 3.83054ZM12.6351 2.5095L8.57851 6.56613C8.36891 6.77544 8.22596 7.04212 8.16768 7.33254L7.79297 9.20821L9.66864 8.83279C9.95905 8.77471 10.2254 8.63234 10.4351 8.42267L14.4917 4.36604C14.6136 4.24414 14.7103 4.09942 14.7763 3.94015C14.8422 3.78088 14.8762 3.61017 14.8762 3.43777C14.8762 3.26538 14.8422 3.09467 14.7763 2.9354C14.7103 2.77612 14.6136 2.6314 14.4917 2.5095C14.3698 2.3876 14.2251 2.2909 14.0658 2.22493C13.9065 2.15896 13.7358 2.125 13.5634 2.125C13.391 2.125 13.2203 2.15896 13.061 2.22493C12.9018 2.2909 12.757 2.3876 12.6351 2.5095V2.5095Z" stroke="#68656D" stroke-width="1.5" stroke-linecap="round" stroke-linejoin="round"/>
<path d="M13.459 10.6243V12.7493C13.459 13.1251 13.3097 13.4854 13.0441 13.7511C12.7784 14.0168 12.418 14.166 12.0423 14.166H4.25065C3.87493 14.166 3.51459 14.0168 3.24892 13.7511C2.98324 13.4854 2.83398 13.1251 2.83398 12.7493V4.95768C2.83398 4.58196 2.98324 4.22162 3.24892 3.95595C3.51459 3.69027 3.87493 3.54102 4.25065 3.54102H6.37565" stroke="#68656D" stroke-width="1.5" stroke-linecap="round" stroke-linejoin="round"/>
</svg>
