<svg width="12" height="15" viewBox="0 0 12 15" fill="none" xmlns="http://www.w3.org/2000/svg">
<path d="M8.02542 2.42187L8.02541 2.42185C7.77418 2.01522 7.24374 1.71523 6.00061 1.71523C4.97132 1.71523 4.42008 1.93306 4.13079 2.22682L8.02542 2.42187ZM8.02542 2.42187C8.14581 2.61671 8.25036 2.90213 8.32131 3.31743C8.1972 3.53787 8.12795 3.79027 8.12795 4.05227V6.00807M8.02542 2.42187L8.12795 6.00807M8.12795 6.00807C7.88873 6.03563 7.58947 6.0547 7.21742 6.0565C6.98878 5.90662 6.71796 5.82318 6.43442 5.82318H5.82803C5.03968 5.82318 4.39929 6.46356 4.39929 7.25191C4.39929 7.30073 4.40175 7.34898 4.40654 7.39655C4.18004 7.18187 3.97055 6.92242 3.80036 6.61548C3.84761 6.46989 3.87328 6.31454 3.87326 6.15349C3.87326 6.15345 3.87326 6.1534 3.87326 6.15336L3.87326 4.05227C3.87326 3.78632 3.80217 3.53039 3.67455 3.30759C3.76975 2.74022 3.93127 2.42944 4.13078 2.22683L8.12795 6.00807Z" stroke="#68656D" stroke-width="1.2"/>
<path d="M2.268 4.15507V6.04835H1.74844V4.15507H1.91803H2.268ZM9.73117 4.15503H10.0811H10.2508V6.04835H10.1307H9.80273L9.78217 6.0804L9.73117 6.06886V4.15503Z" stroke="#68656D" stroke-width="1.2"/>
<path d="M10.471 10.5065L10.4712 10.5066C10.6533 10.6321 10.8549 10.9312 11.0349 11.4194C11.1925 11.8468 11.3053 12.34 11.3842 12.8001C11.3061 12.9181 11.1045 13.1611 10.6519 13.4175C9.93217 13.8254 8.55434 14.2797 5.99996 14.2797C3.44553 14.2797 2.06771 13.8254 1.34796 13.4175C0.896157 13.1615 0.694511 12.9189 0.616166 12.8008C0.659093 12.5601 0.749434 12.1143 0.896105 11.661C0.98492 11.3865 1.08932 11.1253 1.20757 10.9114C1.33019 10.6895 1.44246 10.5647 1.52551 10.5088L1.52566 10.5087C1.91817 10.2441 3.28468 9.50245 4.0559 9.0888C4.37405 9.30733 4.71681 9.47165 5.07895 9.57583L5.43902 10.5248L6 12.0033L6.56098 10.5248L6.92105 9.57582C7.28324 9.47163 7.62601 9.30727 7.94416 9.0887C8.71811 9.50278 10.0782 10.2356 10.471 10.5065ZM11.4254 12.7291C11.4263 12.7267 11.4268 12.7256 11.4268 12.7256C11.4269 12.7256 11.4264 12.7268 11.4254 12.7291ZM0.573219 12.7258C0.57324 12.7258 0.573719 12.7268 0.574589 12.729C0.573633 12.7269 0.573197 12.7258 0.573219 12.7258Z" stroke="#68656D" stroke-width="1.2"/>
</svg>
