<svg width="16" height="16" viewBox="0 0 16 16" fill="none" xmlns="http://www.w3.org/2000/svg">
<circle r="8" transform="matrix(1 0 0 -1 8 8)" fill="#F4EFFD"/>
<path d="M8.76345 5.77691C9.3771 5.77691 9.87457 5.27945 9.87457 4.6658C9.87457 4.05215 9.3771 3.55469 8.76345 3.55469C8.14981 3.55469 7.65234 4.05215 7.65234 4.6658C7.65234 5.27945 8.14981 5.77691 8.76345 5.77691Z" fill="#885DE5"/>
<path d="M9.89954 10.2857C9.86885 10.2651 9.83434 10.2508 9.79804 10.2436C9.76174 10.2365 9.72438 10.2367 9.68816 10.2442C9.65193 10.2517 9.61757 10.2664 9.58709 10.2873C9.55661 10.3083 9.53062 10.3352 9.51066 10.3663C9.24212 10.764 8.91316 11.1173 8.53566 11.4135C8.44399 11.483 8.10232 11.7468 7.95788 11.6913C7.85788 11.6607 7.91621 11.4635 7.93566 11.3802L8.08288 10.9441C8.14399 10.7663 9.20788 7.61074 9.32454 7.24963C9.49677 6.72185 9.42177 6.2024 8.63566 6.3274C8.42177 6.34963 6.25232 6.63018 6.21343 6.63296C6.17695 6.63533 6.1413 6.64486 6.10851 6.66101C6.07571 6.67716 6.04642 6.69962 6.0223 6.72709C5.99819 6.75456 5.97972 6.78651 5.96795 6.82112C5.95618 6.85573 5.95134 6.89232 5.95371 6.92879C5.95608 6.96527 5.96562 7.00093 5.98177 7.03372C5.99792 7.06651 6.02037 7.09581 6.04784 7.11992C6.07531 7.14404 6.10726 7.16251 6.14187 7.17428C6.17648 7.18605 6.21307 7.19089 6.24954 7.18852C6.24954 7.18852 7.08288 7.08018 7.17454 7.07185C7.2215 7.06726 7.26877 7.07637 7.31067 7.09805C7.35257 7.11974 7.38729 7.15309 7.41066 7.19407C7.46099 7.34966 7.45409 7.51811 7.39121 7.66907C7.31899 7.94685 6.17732 11.1635 6.14121 11.3496C6.10248 11.5054 6.11323 11.6693 6.17198 11.8187C6.23072 11.968 6.33453 12.0953 6.46899 12.183C6.72135 12.3512 7.02184 12.4321 7.32454 12.4135C7.61887 12.4099 7.90995 12.3515 8.18288 12.2413C8.87454 11.9635 9.59677 11.2246 9.97732 10.6441C10.0101 10.5851 10.0203 10.5162 10.006 10.4502C9.99165 10.3843 9.95382 10.3258 9.89954 10.2857Z" fill="#885DE5"/>
</svg>
