<svg width="95" height="23" viewBox="0 0 95 23" fill="none" xmlns="http://www.w3.org/2000/svg">
<g clip-path="url(#clip0_16046_130454)">
<path d="M0 21.8028H3.34144V16.15H9.18218V21.8028H12.5168V7.26979H9.18218V12.9226H3.34144V7.26979H0V21.8028Z" fill="#805AA6"/>
<path d="M19.9875 19.0881C20.3012 19.0936 20.6124 19.0343 20.9005 18.9141C21.1886 18.794 21.4469 18.6158 21.6583 18.3914C22.1427 17.8455 22.3866 17.1375 22.3374 16.4195C22.3794 15.7024 22.1364 14.9969 21.6583 14.4476C21.4596 14.2163 21.2118 14.029 20.9317 13.8986C20.6516 13.7682 20.3458 13.6976 20.0351 13.6917C19.7212 13.6849 19.4096 13.7437 19.1213 13.8639C18.833 13.9842 18.5749 14.163 18.3644 14.3884C17.8843 14.9367 17.6411 15.6429 17.6852 16.3603C17.65 17.0765 17.8921 17.7797 18.3644 18.3322C18.5619 18.5649 18.8094 18.753 19.0897 18.8836C19.3701 19.0141 19.6765 19.084 19.9875 19.0881ZM19.9875 21.9606C18.9529 21.983 17.9286 21.7572 17.006 21.3033C16.1356 20.8481 15.4153 20.1646 14.9278 19.3313C14.4172 18.4277 14.1619 17.4097 14.1876 16.3801C14.1628 15.3543 14.4257 14.3412 14.9482 13.4485C15.4385 12.6104 16.1668 11.9261 17.0468 11.4765C17.9733 11.0312 18.9938 10.7995 20.0283 10.7995C21.0628 10.7995 22.0832 11.0312 23.0098 11.4765C23.8877 11.9265 24.6137 12.6109 25.1016 13.4485C25.6116 14.3503 25.879 15.3618 25.879 16.3899C25.879 17.418 25.6116 18.4295 25.1016 19.3313C24.6089 20.1721 23.8753 20.857 22.9894 21.3033C22.0605 21.7596 21.029 21.9855 19.9875 21.9606Z" fill="#805AA6"/>
<path d="M30.8744 7.26979H27.5398V21.8094H30.8744V7.26979Z" fill="#805AA6"/>
<path d="M40.8852 16.3932C40.9128 16.0373 40.8671 15.6797 40.7505 15.3411C40.6339 15.0026 40.4488 14.6899 40.206 14.4212C39.9887 14.1904 39.723 14.0072 39.4267 13.8836C39.1304 13.7601 38.8103 13.6991 38.4877 13.7048C38.1613 13.7004 37.8376 13.7617 37.5371 13.8851C37.2365 14.0085 36.9659 14.191 36.7423 14.4212C36.5002 14.6903 36.3155 15.003 36.1989 15.3415C36.0824 15.6799 36.0362 16.0374 36.0632 16.3932C36.0232 17.11 36.266 17.8148 36.7423 18.3651C36.9659 18.5953 37.2365 18.7779 37.5371 18.9013C37.8376 19.0246 38.1613 19.086 38.4877 19.0816C38.8103 19.0873 39.1304 19.0263 39.4267 18.9027C39.723 18.7792 39.9887 18.5959 40.206 18.3651C40.4494 18.0969 40.6349 17.7843 40.7515 17.4456C40.8682 17.1069 40.9136 16.7491 40.8852 16.3932ZM32.5451 16.3932C32.5219 15.3814 32.7404 14.3782 33.1835 13.4616C33.576 12.6572 34.1922 11.9744 34.9629 11.4897C35.714 11.044 36.5813 10.8159 37.4622 10.8324C38.1709 10.822 38.871 10.9823 39.4997 11.2991C40.0595 11.5787 40.5293 12.0016 40.858 12.5217V10.9901H44.1994V21.8094H40.8852V20.2713C40.549 20.7871 40.0812 21.2105 39.5268 21.5004C38.8976 21.8149 38.1974 21.973 37.4894 21.9606C36.6152 21.9751 35.755 21.747 35.0105 21.3033C34.2441 20.8137 33.6292 20.1322 33.2311 19.3313C32.7716 18.4092 32.537 17.3972 32.5451 16.3735V16.3932Z" fill="#805AA6"/>
<path fill-rule="evenodd" clip-rule="evenodd" d="M20.0351 4.03584C19.7047 4.03584 19.3817 4.13069 19.1069 4.30837C18.8322 4.48604 18.618 4.73857 18.4916 5.03404C18.3651 5.3295 18.332 5.65462 18.3965 5.96828C18.4609 6.28194 18.6201 6.57007 18.8537 6.79621C19.0874 7.02235 19.3851 7.17633 19.7092 7.23872C20.0333 7.30111 20.3692 7.26911 20.6745 7.14673C20.9797 7.02434 21.2407 6.81708 21.4243 6.55117C21.6078 6.28526 21.7058 5.97263 21.7058 5.65283C21.7058 5.44048 21.6626 5.23022 21.5786 5.03404C21.4947 4.83786 21.3716 4.65959 21.2165 4.50944C21.0613 4.35929 20.8772 4.24019 20.6745 4.15893C20.4718 4.07767 20.2545 4.03584 20.0351 4.03584ZM19.1997 5.65283C19.1997 5.81273 19.2487 5.96904 19.3405 6.102C19.4323 6.23495 19.5628 6.33857 19.7154 6.39976C19.8681 6.46095 20.036 6.47697 20.1981 6.44577C20.3601 6.41458 20.509 6.33759 20.6258 6.22452C20.7426 6.11145 20.8222 5.96736 20.8544 5.81053C20.8866 5.6537 20.8701 5.49116 20.8069 5.34343C20.7437 5.1957 20.6366 5.06944 20.4992 4.9806C20.3618 4.89176 20.2003 4.84436 20.0351 4.84436C19.9248 4.84349 19.8155 4.86373 19.7133 4.90397C19.6112 4.94421 19.5183 5.00365 19.44 5.07881C19.3617 5.15397 19.2996 5.24339 19.2572 5.34191C19.2148 5.44043 19.1929 5.5461 19.193 5.65283H19.1997Z" fill="#805AA6"/>
<path fill-rule="evenodd" clip-rule="evenodd" d="M29.2037 -1.52587e-05C28.9852 -1.52587e-05 28.7688 0.0416575 28.5669 0.122588C28.3651 0.203518 28.1816 0.322121 28.0271 0.47166C27.8726 0.6212 27.7501 0.798744 27.6664 0.994127C27.5828 1.18951 27.5398 1.39891 27.5398 1.61039V3.22738C27.5252 3.44795 27.5575 3.66905 27.6348 3.87706C27.712 4.08507 27.8324 4.27556 27.9887 4.43675C28.1449 4.59794 28.3336 4.7264 28.5432 4.81423C28.7528 4.90206 28.9787 4.94738 29.2071 4.94738C29.4355 4.94738 29.6614 4.90206 29.871 4.81423C30.0806 4.7264 30.2693 4.59794 30.4255 4.43675C30.5818 4.27556 30.7022 4.08507 30.7795 3.87706C30.8567 3.66905 30.889 3.44795 30.8744 3.22738V1.61039C30.8726 1.18268 30.6958 0.77308 30.3827 0.471259C30.0696 0.169439 29.6456 -1.87926e-05 29.2037 -1.52587e-05ZM30.0391 3.22738V1.61039C30.0391 1.39597 29.9511 1.19032 29.7944 1.0387C29.6377 0.887078 29.4253 0.801918 29.2037 0.801918C28.9822 0.801918 28.7697 0.887078 28.613 1.0387C28.4564 1.19032 28.3683 1.39597 28.3683 1.61039V3.22738C28.3683 3.4418 28.4564 3.64745 28.613 3.79907C28.7697 3.95069 28.9822 4.03585 29.2037 4.03585C29.4253 4.03585 29.6377 3.95069 29.7944 3.79907C29.9511 3.64745 30.0391 3.4418 30.0391 3.22738Z" fill="#805AA6"/>
<path fill-rule="evenodd" clip-rule="evenodd" d="M40.9463 1.74844C40.7917 1.59839 40.6081 1.47936 40.4059 1.39812C40.2037 1.31689 39.9869 1.27504 39.768 1.27504C39.549 1.27504 39.3323 1.31689 39.1301 1.39812C38.9279 1.47936 38.7442 1.59839 38.5896 1.74844L36.2262 4.03585C35.9379 4.34373 35.7831 4.74722 35.794 5.16258C35.8049 5.57794 35.9805 5.97328 36.2845 6.26665C36.5885 6.56002 36.9975 6.72889 37.4267 6.7382C37.8559 6.74752 38.2723 6.5966 38.5896 6.31672L40.9463 4.03585C41.1015 3.88569 41.2247 3.70742 41.3087 3.51118C41.3927 3.31493 41.436 3.10457 41.436 2.89214C41.436 2.67972 41.3927 2.4694 41.3087 2.27315C41.2247 2.07691 41.1015 1.8986 40.9463 1.74844ZM37.9988 5.77114L40.3554 3.49031C40.4424 3.41786 40.513 3.32881 40.5628 3.22878C40.6127 3.12875 40.6407 3.01989 40.6452 2.90891C40.6496 2.79794 40.6304 2.68726 40.5887 2.58379C40.547 2.48033 40.4837 2.38629 40.4028 2.30753C40.3219 2.22878 40.2251 2.16703 40.1185 2.12608C40.0118 2.08513 39.8976 2.06585 39.7829 2.06951C39.6682 2.07317 39.5555 2.09967 39.4519 2.14734C39.3482 2.19501 39.2559 2.26282 39.1805 2.34657L36.817 4.63402C36.6793 4.78892 36.6072 4.98855 36.6154 5.19279C36.6236 5.39703 36.7114 5.59069 36.8611 5.7348C37.0109 5.8789 37.2115 5.96279 37.4226 5.96953C37.6336 5.97627 37.8395 5.90538 37.9988 5.77114Z" fill="#805AA6"/>
<path d="M48.0162 21.7831V7.65759H57.0694V9.49146H50.2235V13.7968H56.4242V15.6307H50.2235V21.7896L48.0162 21.7831Z" fill="#679A40"/>
<path d="M62.917 21.9934C61.9764 22.0252 61.0459 21.7972 60.2343 21.3361C59.4637 20.8781 58.8441 20.2168 58.4481 19.43C58.0095 18.5331 57.7932 17.5495 57.8165 16.5575C57.7941 15.5614 58.0103 14.5737 58.4481 13.672C58.843 12.8827 59.4627 12.219 60.2343 11.7592C61.053 11.3086 61.9786 11.0716 62.9204 11.0716C63.8622 11.0716 64.7878 11.3086 65.6064 11.7592C66.3775 12.2177 66.9953 12.8819 67.3858 13.672C67.826 14.5732 68.0445 15.5608 68.0242 16.5575C68.0454 17.55 67.8268 18.5336 67.3858 19.43C66.9917 20.216 66.3745 20.8771 65.6064 21.3361C64.792 21.7964 63.8596 22.0243 62.917 21.9934ZM62.917 20.2647C63.5142 20.2857 64.1002 20.1044 64.5741 19.752C65.0192 19.3933 65.353 18.9224 65.5385 18.3914C65.9639 17.181 65.9639 15.8684 65.5385 14.6579C65.3509 14.1244 65.0148 13.6513 64.5673 13.2907C64.0838 12.9533 63.5029 12.7717 62.9068 12.7717C62.3107 12.7717 61.7297 12.9533 61.2462 13.2907C60.7987 13.6513 60.4627 14.1244 60.2751 14.6579C59.8497 15.8684 59.8497 17.181 60.2751 18.3914C60.4625 18.9232 60.7987 19.3942 61.2462 19.752C61.7261 20.1078 62.3198 20.2892 62.9238 20.2647H62.917Z" fill="#679A40"/>
<path d="M74.5033 21.9934C73.5516 22.0293 72.6091 21.8012 71.7867 21.3361C71.0186 20.8771 70.4015 20.216 70.0073 19.4299C69.5687 18.5331 69.3524 17.5495 69.3757 16.5575C69.3533 15.5613 69.5695 14.5737 70.0073 13.672C70.4004 12.8835 71.0177 12.2199 71.7867 11.7592C72.6075 11.3111 73.5339 11.0757 74.4762 11.0757C75.4185 11.0757 76.3449 11.3111 77.1656 11.7592C77.9347 12.2199 78.552 12.8835 78.945 13.672C79.3829 14.5737 79.599 15.5613 79.5766 16.5575C79.5999 17.5495 79.3836 18.5331 78.945 19.4299C78.5509 20.216 77.9337 20.8771 77.1656 21.3361C76.3591 21.7916 75.4368 22.0193 74.5033 21.9934ZM74.5033 20.2647C75.1005 20.2857 75.6866 20.1044 76.1605 19.752C76.608 19.3942 76.9442 18.9232 77.1317 18.3914C77.5571 17.1809 77.5571 15.8684 77.1317 14.6579C76.9441 14.1244 76.608 13.6513 76.1605 13.2907C75.677 12.9533 75.096 12.7716 74.5 12.7716C73.9039 12.7716 73.3229 12.9533 72.8394 13.2907C72.3878 13.649 72.049 14.1227 71.8614 14.6579C71.445 15.8698 71.445 17.1795 71.8614 18.3914C72.0488 18.9249 72.3878 19.3965 72.8394 19.752C73.3175 20.1063 73.9085 20.2877 74.5101 20.2647H74.5033Z" fill="#679A40"/>
<path d="M85.5735 21.9868C84.7356 22.0006 83.9126 21.7717 83.21 21.3295C82.4964 20.861 81.9338 20.2071 81.5869 19.4431C81.1755 18.5159 80.9762 17.5136 81.0028 16.5049C80.9749 15.4955 81.1766 14.4924 81.5937 13.5668C81.9458 12.8055 82.5133 12.1561 83.2304 11.6935C83.9334 11.2575 84.7523 11.0291 85.5871 11.0362C86.1547 11.0109 86.7198 11.1239 87.2306 11.3648C87.6069 11.549 87.938 11.8089 88.2018 12.1273C88.398 12.3696 88.5773 12.6243 88.7384 12.8898H88.8674V7.63132H91V21.7568H88.9149V20.107H88.7384C88.5763 20.377 88.3923 20.6341 88.1883 20.876C87.9162 21.1915 87.5813 21.4508 87.2035 21.6385C86.6976 21.8815 86.138 22.0011 85.5735 21.9868ZM86.0489 20.2318C86.6076 20.2478 87.1555 20.0811 87.6042 19.7586C88.0467 19.4152 88.3827 18.9603 88.5754 18.444C88.8054 17.8109 88.9158 17.143 88.9014 16.4721C88.9149 15.8141 88.8044 15.1592 88.5754 14.5396C88.3944 14.0192 88.0589 13.5619 87.611 13.225C87.1583 12.9057 86.6087 12.7415 86.0489 12.7583C85.4709 12.7388 84.9032 12.9104 84.4393 13.2447C83.9998 13.5894 83.6663 14.0441 83.4749 14.5593C83.2515 15.1643 83.1434 15.8034 83.1557 16.4458C83.1455 17.0949 83.2559 17.7406 83.4817 18.352C83.6765 18.8672 84.0122 19.3215 84.4529 19.6666C84.9001 20.0301 85.4649 20.2302 86.0489 20.2318Z" fill="#679A40"/>
</g>
<defs>
<clipPath id="clip0_16046_130454">
<rect width="91" height="22" fill="white"/>
</clipPath>
</defs>
</svg>
