<svg width="27" height="21" viewBox="0 0 27 21" fill="none" xmlns="http://www.w3.org/2000/svg">
<path d="M18.4533 2.46988C18.4428 2.57803 18.4356 2.6913 18.4327 2.80325C18.3608 2.76326 18.2937 2.72543 18.2325 2.69033C18.2287 2.68816 18.2249 2.68599 18.2212 2.68385C18.2306 2.61197 18.2453 2.53612 18.2646 2.46282C18.2888 2.37094 18.316 2.29914 18.3391 2.25203C18.3913 2.14585 18.4581 2.05046 18.5345 1.96824C18.5329 1.97476 18.5313 1.98117 18.5298 1.98745C18.493 2.14264 18.4685 2.31292 18.4533 2.46988Z" stroke="#8D869D" stroke-width="2"/>
<path d="M17.8905 5.19343C17.959 5.32649 18.0469 5.59004 18.1933 6.18688C18.1512 6.18112 18.1059 6.17766 18.0577 6.17766C17.7812 6.17766 17.5886 6.29195 17.5354 6.32426C17.4589 6.37084 17.4049 6.41782 17.3788 6.44153C17.3247 6.49075 17.2865 6.53621 17.271 6.55497C17.235 6.59847 17.205 6.64102 17.1872 6.66679C17.1476 6.72422 17.1031 6.79417 17.0596 6.86438C16.9702 7.00879 16.8563 7.2013 16.7371 7.40819C16.5002 7.81934 16.2212 8.32343 16.0482 8.66846L16.0448 8.6754L16.0414 8.68239L15.7653 9.25526L15.2964 10.228L16.3022 10.6209L17.881 11.2376C18.3 11.4016 18.6961 11.5719 18.9944 11.7124C19.0664 11.7462 19.1303 11.7773 19.1859 11.8052C19.1852 11.8084 19.1845 11.8117 19.1838 11.815C19.1676 11.891 19.1448 11.9784 19.1143 12.08C19.0611 11.9796 19.0057 11.9135 18.9843 11.8882C18.896 11.7843 18.8038 11.7156 18.7553 11.6814C18.6496 11.6068 18.5348 11.5473 18.4457 11.5046C18.2556 11.4135 18.0178 11.3214 17.7768 11.2413L17.7687 11.2386L17.7604 11.236C17.5702 11.1764 17.4069 11.1258 17.2762 11.0895C17.1661 11.059 16.9943 11.0134 16.8207 11.0043C16.6735 10.9966 16.264 11.0058 15.9554 11.3344C15.872 11.3369 15.7765 11.3388 15.6669 11.3402L15.0747 10.6904L14.8944 10.4926C14.8934 10.4858 14.8924 10.4777 14.8914 10.4683C14.8813 10.3695 14.8874 10.1907 14.9465 9.91233C15.0648 9.35541 15.3573 8.57179 15.8591 7.57071L15.8615 7.56597C16.2665 6.74718 16.5909 6.18575 16.8679 5.80407C17.1441 5.4236 17.3297 5.28328 17.4367 5.22825C17.5658 5.16394 17.6427 5.13072 17.6926 5.11284C17.697 5.11127 17.701 5.10989 17.7046 5.10869C17.7319 5.1168 17.7832 5.13394 17.8686 5.16896C17.873 5.17084 17.8768 5.17255 17.8801 5.1741C17.883 5.17928 17.8865 5.18567 17.8905 5.19343ZM19.3997 11.9209C19.4071 11.9258 19.4052 11.9251 19.3965 11.9189C19.3979 11.9198 19.399 11.9204 19.3997 11.9209ZM14.2192 15.2088C14.2192 15.5845 14.2787 16.0324 14.5405 16.4232H13.2753H7.51109L7.51403 16.4167L7.51729 16.4095C7.54244 16.3544 7.57574 16.2813 7.60273 16.2167C7.61441 16.1887 7.6297 16.151 7.64442 16.1097H7.67169L7.96869 15.7877L8.22273 15.5122L8.47677 15.2368L8.79579 14.8909C8.86848 14.8746 8.93982 14.8552 9.01084 14.8322C9.21115 14.7672 9.37248 14.6838 9.49629 14.6193L9.49631 14.6193L9.50362 14.6154L10.0006 14.351L9.87516 13.8406C9.90589 13.8365 9.93561 13.832 9.96405 13.8272C10.0216 13.8174 10.1257 13.798 10.2354 13.7572C10.2459 13.7533 10.2593 13.7482 10.2752 13.7416C10.3842 13.7327 10.5472 13.7237 10.7696 13.7156C11.2863 13.697 12.0596 13.686 13.0654 13.686C13.6094 13.686 14.1207 13.6893 14.565 13.6948C14.3394 14.1918 14.2192 14.6623 14.2192 15.2088ZM17.6551 12.1397C17.6551 12.14 17.6551 12.1418 17.655 12.1447L17.6551 12.1397ZM22.7484 8.22301C22.7075 8.22747 22.6441 8.23565 22.568 8.25467C22.5608 8.24299 22.553 8.23086 22.5446 8.21838C22.6795 8.19708 22.824 8.17571 22.9694 8.15573C22.9667 8.17509 22.9641 8.19432 22.9615 8.21339C22.8893 8.21284 22.8173 8.2155 22.7484 8.22301ZM21.4103 16.4232H21.0005C21.1268 16.3211 21.2476 16.21 21.3627 16.0896C21.8867 15.5409 22.2493 14.8437 22.5016 14.0447L22.5016 14.0447L22.5052 14.033C22.6233 13.6422 22.6933 13.3331 22.7343 12.9363L23.0411 13.9724L23.2433 14.6552L23.9547 14.6875L24.6836 14.7205L24.6836 14.7206L24.6964 14.721C24.7579 14.723 24.8242 14.7293 24.8938 14.7394C24.3745 15.0191 23.769 15.3406 23.1649 15.6579C22.5442 15.984 21.9277 16.3041 21.4103 16.5685V16.4232ZM22.8491 9.03144C22.85 9.02672 22.8508 9.02203 22.8517 9.01737C22.8514 9.01926 22.8513 9.02014 22.8514 9.02014L22.8491 9.03144ZM23.6188 8.25583C23.6184 8.25585 23.618 8.25587 23.6175 8.2559L23.6188 8.25583ZM14.9005 10.5226C14.9005 10.5226 14.9003 10.522 14.8999 10.5206L14.9005 10.5226Z" stroke="#8D869D" stroke-width="2"/>
<path d="M13.8835 5.23727C13.9829 5.35845 13.9056 6.01945 13.5632 8.06855L13.8835 5.23727ZM13.8835 5.23727C13.7068 5.01693 8.23953 5.00592 8.06281 5.22625L13.8835 5.23727ZM8.67257 7.01661C8.73138 6.68286 8.79329 6.36864 8.84893 6.11523C8.91713 6.1109 8.99124 6.10675 9.07101 6.10283C9.58846 6.07744 10.2758 6.06515 10.9712 6.06651C11.6609 6.06785 12.3426 6.08259 12.8586 6.10953C12.8034 6.51683 12.7122 7.09389 12.5769 7.90374L12.5766 7.9053C12.3876 9.04767 12.2714 9.69345 12.1824 10.0721C12.18 10.0823 12.1777 10.0923 12.1754 10.1019C12.1129 10.1058 12.0379 10.1095 11.9485 10.1125C11.3326 10.1333 10.2286 10.1313 8.15545 10.1207C8.14894 9.99888 8.12376 9.8914 8.08665 9.79694C8.15508 9.68698 8.19274 9.59054 8.21279 9.53803C8.21326 9.53682 8.21401 9.53492 8.21503 9.53238C8.23027 9.49415 8.30371 9.30996 8.31586 9.10495L8.41896 8.50132L8.67257 7.01661ZM12.9235 5.44866C12.9234 5.44685 12.9234 5.4459 12.9234 5.44588L12.9235 5.44866ZM6.63737 8.93632L6.34562 8.8249L6.63737 8.93632Z" stroke="#8D869D" stroke-width="2"/>
<path d="M25.5938 16.3042C25.5938 16.3041 25.5945 16.3048 25.5958 16.3064C25.5945 16.305 25.5938 16.3042 25.5938 16.3042Z" stroke="#8D869D" stroke-width="2"/>
<mask id="path-5-inside-1" fill="white">
<path d="M7.04688 18.1057C7.05792 18.6125 7.38927 19.3066 7.80898 19.6591C9.04602 20.6947 11.2329 20.0447 12.0724 18.3812L12.3595 17.8083L11.7189 17.7752C11.2661 17.7532 11.0673 17.7863 11.0341 17.8854C10.9237 18.2269 10.1837 18.8218 9.775 18.8989C9.16752 19.0091 8.58213 18.7006 8.41646 18.1939C8.29496 17.8193 8.27287 17.8083 7.6654 17.7752L7.04688 17.7422V18.1057Z"/>
</mask>
<path d="M7.04688 18.1057H5.04688V18.1275L5.04735 18.1493L7.04688 18.1057ZM7.80898 19.6591L6.52265 21.1905L6.52518 21.1927L7.80898 19.6591ZM12.0724 18.3812L13.8579 19.2822L13.8603 19.2774L12.0724 18.3812ZM12.3595 17.8083L14.1475 18.7046L15.519 15.9686L12.4626 15.8109L12.3595 17.8083ZM11.7189 17.7752L11.822 15.7779L11.8161 15.7776L11.7189 17.7752ZM11.0341 17.8854L9.13725 17.2515L9.13417 17.2607L9.13117 17.27L11.0341 17.8854ZM9.775 18.8989L10.1319 20.8668L10.1389 20.8656L10.1459 20.8643L9.775 18.8989ZM8.41646 18.1939L6.51403 18.8109L6.51547 18.8154L8.41646 18.1939ZM7.6654 17.7752L7.77405 15.7782L7.77211 15.7781L7.6654 17.7752ZM7.04688 17.7422L7.15359 15.745L5.04688 15.6325V17.7422H7.04688ZM5.04735 18.1493C5.06093 18.7724 5.25459 19.3597 5.47625 19.8153C5.70046 20.2761 6.04382 20.7884 6.52265 21.1905L9.09532 18.1276C9.11627 18.1452 9.12742 18.1571 9.13024 18.1602C9.13325 18.1635 9.13102 18.1614 9.12481 18.1529C9.11129 18.1346 9.09198 18.104 9.07311 18.0652C9.06416 18.0469 9.05667 18.0294 9.05072 18.0138C9.04472 17.9981 9.04118 17.9866 9.03941 17.9802C9.03758 17.9736 9.03855 17.9756 9.04032 17.9867C9.04202 17.9973 9.04554 18.0229 9.0464 18.0622L5.04735 18.1493ZM6.52518 21.1927C7.7794 22.2426 9.379 22.3321 10.6625 21.9485C11.9565 21.5618 13.1729 20.6397 13.8579 19.2822L10.2868 17.4802C10.1324 17.7861 9.83566 18.0208 9.51704 18.116C9.36501 18.1615 9.24667 18.163 9.17507 18.1523C9.14085 18.1471 9.11998 18.1398 9.1095 18.1352C9.09979 18.131 9.09545 18.1277 9.09279 18.1255L6.52518 21.1927ZM13.8603 19.2774L14.1475 18.7046L10.5716 16.912L10.2844 17.4849L13.8603 19.2774ZM12.4626 15.8109L11.822 15.7779L11.6159 19.7726L12.2565 19.8056L12.4626 15.8109ZM11.8161 15.7776C11.5679 15.7655 11.2287 15.7572 10.8991 15.8106C10.735 15.8372 10.441 15.8985 10.128 16.0706C9.7814 16.2611 9.3449 16.6301 9.13725 17.2515L12.931 18.5193C12.7399 19.0911 12.3407 19.4188 12.0549 19.5759C11.8026 19.7146 11.5928 19.7504 11.5391 19.7591C11.4305 19.7767 11.4171 19.7629 11.6217 19.7729L11.8161 15.7776ZM9.13117 17.27C9.18724 17.0966 9.25596 16.9839 9.28331 16.9414C9.31525 16.8918 9.33758 16.8663 9.33896 16.8647C9.3403 16.8632 9.31486 16.8911 9.26268 16.9331C9.21184 16.974 9.16967 17.0008 9.15189 17.0108C9.14412 17.0151 9.15559 17.008 9.18601 16.9956C9.21205 16.985 9.28792 16.9556 9.40413 16.9336L10.1459 20.8643C10.8516 20.7311 11.4573 20.3012 11.7701 20.0496C11.9678 19.8905 12.1736 19.7008 12.3576 19.4893C12.5083 19.3159 12.7851 18.9708 12.9371 18.5008L9.13117 17.27ZM9.41811 16.931C9.54482 16.9081 9.69815 16.9227 9.85469 17.0043C10.011 17.0858 10.2167 17.2642 10.3174 17.5724L6.51547 18.8154C7.05237 20.4576 8.74628 21.1181 10.1319 20.8668L9.41811 16.931ZM10.3189 17.5768C10.2999 17.5182 10.2256 17.2755 10.1016 17.0408C9.93632 16.7279 9.65645 16.3649 9.19467 16.1083C8.81039 15.8947 8.44362 15.8397 8.27785 15.8184C8.10056 15.7955 7.9062 15.7854 7.77405 15.7782L7.55675 19.7723C7.63298 19.7764 7.68468 19.7794 7.72517 19.7823C7.76653 19.7853 7.77522 19.7867 7.76604 19.7855C7.75822 19.7845 7.70273 19.7773 7.6216 19.7557C7.53729 19.7331 7.40418 19.6894 7.25167 19.6047C7.09124 19.5155 6.94134 19.3987 6.81187 19.2576C6.68775 19.1223 6.61 18.9947 6.56492 18.9094C6.49823 18.7832 6.4723 18.6823 6.51403 18.8109L10.3189 17.5768ZM7.77211 15.7781L7.15359 15.745L6.94016 19.7393L7.55868 19.7724L7.77211 15.7781ZM5.04688 17.7422V18.1057H9.04688V17.7422H5.04688Z" fill="#8D869D" mask="url(#path-5-inside-1)"/>
</svg>
