<svg width="10" height="16" viewBox="0 0 10 16" fill="none" xmlns="http://www.w3.org/2000/svg">
<path d="M4.47656 15.4545H5.54474L5.55043 14.1761C7.95384 14 9.32884 12.625 9.32884 10.7841C9.32884 8.6875 7.45952 7.875 5.98224 7.51136L5.56747 7.40341L5.57884 3.75568C6.64134 3.89773 7.36861 4.48864 7.47656 5.42045H9.16974C9.12429 3.6875 7.69247 2.39205 5.58452 2.22159L5.5902 0.90909H4.52202L4.51634 2.23295C2.47656 2.4375 0.982244 3.71023 0.982244 5.54545C0.982244 7.16477 2.14134 8.11364 4.01065 8.61932L4.49929 8.75L4.48793 12.6193C3.37997 12.483 2.52202 11.8807 2.43111 10.7841H0.669744C0.777699 12.7443 2.19247 14.0057 4.48224 14.1761L4.47656 15.4545ZM5.55611 12.6193L5.56747 9.04545C6.72088 9.36364 7.5902 9.78409 7.5902 10.767C7.5902 11.7614 6.76065 12.4602 5.55611 12.6193ZM4.50497 7.11932C3.65838 6.86932 2.72656 6.42045 2.73224 5.44318C2.73224 4.59091 3.40838 3.92614 4.51065 3.76136L4.50497 7.11932Z" fill="#8D869D"/>
</svg>
