<svg width="22" height="22" viewBox="0 0 22 22" fill="none" xmlns="http://www.w3.org/2000/svg">
<path d="M11.5494 3.78421H4.84834C4.6677 3.78421 4.5213 3.63448 4.5213 3.44972C4.5213 3.26497 4.66774 3.11523 4.84834 3.11523H11.5494C11.73 3.11523 11.8765 3.26497 11.8765 3.44972C11.8765 3.63448 11.7301 3.78421 11.5494 3.78421Z" fill="#885DE5"/>
<path d="M5.14435 6.23613H1.69507C1.51443 6.23613 1.36804 6.0864 1.36804 5.90164C1.36804 5.71688 1.51448 5.56715 1.69507 5.56715H5.14435C5.32499 5.56715 5.47138 5.71688 5.47138 5.90164C5.47138 6.0864 5.32499 6.23613 5.14435 6.23613Z" fill="#885DE5"/>
<path d="M5.0261 8.51554H3.66356C3.48292 8.51554 3.33652 8.36581 3.33652 8.18106C3.33652 7.9963 3.48296 7.84657 3.66356 7.84657H5.02614C5.20678 7.84657 5.35318 7.9963 5.35318 8.18106C5.35318 8.36581 5.20674 8.51554 5.0261 8.51554Z" fill="#885DE5"/>
<path d="M3.66356 10.1663H0.327035C0.146395 10.1663 0 10.0166 0 9.83179C0 9.64704 0.146438 9.49731 0.327035 9.49731H3.66352C3.84416 9.49731 3.99055 9.64704 3.99055 9.83179C3.99055 10.0166 3.84416 10.1663 3.66356 10.1663Z" fill="#885DE5"/>
<path d="M11.9855 18.883H4.84834C4.6677 18.883 4.5213 18.7333 4.5213 18.5485C4.5213 18.3637 4.66774 18.214 4.84834 18.214H11.9855C12.1661 18.214 12.3125 18.3637 12.3125 18.5485C12.3125 18.7332 12.1661 18.883 11.9855 18.883Z" fill="#885DE5"/>
<path d="M5.14435 16.4311H1.69507C1.51443 16.4311 1.36804 16.2814 1.36804 16.0966C1.36804 15.9118 1.51448 15.7621 1.69507 15.7621H5.14435C5.32499 15.7621 5.47138 15.9118 5.47138 16.0966C5.47138 16.2814 5.32499 16.4311 5.14435 16.4311Z" fill="#885DE5"/>
<path d="M5.0261 14.1517H3.66356C3.48292 14.1517 3.33652 14.0019 3.33652 13.8171C3.33652 13.6323 3.48296 13.4827 3.66356 13.4827H5.02614C5.20678 13.4827 5.35318 13.6324 5.35318 13.8171C5.35318 14.0019 5.20674 14.1517 5.0261 14.1517Z" fill="#885DE5"/>
<path d="M3.66356 12.501H0.327035C0.146395 12.501 0 12.3513 0 12.1665C0 11.9817 0.146438 11.832 0.327035 11.832H3.66352C3.84416 11.832 3.99055 11.9817 3.99055 12.1665C3.99055 12.3513 3.84416 12.501 3.66356 12.501Z" fill="#885DE5"/>
<path d="M11 19.25C15.5563 19.25 19.25 15.5563 19.25 11C19.25 6.44365 15.5563 2.75 11 2.75C6.44365 2.75 2.75 6.44365 2.75 11C2.75 15.5563 6.44365 19.25 11 19.25Z" fill="#885DE5"/>
<path d="M13.8687 14.575C13.688 14.575 13.5071 14.5063 13.3691 14.369L10.5194 11.5132C10.2435 11.2385 10.2435 10.7932 10.5194 10.5184C10.7953 10.2439 11.2425 10.2439 11.5184 10.5184L14.3681 13.3742C14.644 13.6489 14.644 14.0943 14.3681 14.369C14.2302 14.5063 14.0494 14.575 13.8687 14.575Z" fill="white"/>
<path d="M11 11.6875C10.6203 11.6875 10.3125 11.3952 10.3125 11.0345V6.15299C10.3125 5.7923 10.6202 5.5 11 5.5C11.3799 5.5 11.6875 5.7923 11.6875 6.15299V11.0344C11.6875 11.3951 11.3798 11.6875 11 11.6875Z" fill="white"/>
</svg>
