<svg width="17" height="23" viewBox="0 0 17 23" fill="none" xmlns="http://www.w3.org/2000/svg">
<path d="M8.375 0.5C6.22019 0.500069 4.15366 1.33961 2.62998 2.83395C1.1063 4.32829 0.250277 6.35503 0.250207 8.46834C0.202586 16.0708 8.375 23 8.375 23C8.375 23 16.5474 16.0708 16.4998 8.46834C16.4997 6.35503 15.6437 4.32829 14.12 2.83395C12.5963 1.33961 10.5298 0.500069 8.375 0.5ZM8.375 11.8492C7.69319 11.8492 7.0267 11.651 6.45979 11.2795C5.89289 10.908 5.45104 10.3799 5.19013 9.76216C4.92921 9.14438 4.86094 8.46459 4.99396 7.80876C5.12697 7.15293 5.45529 6.55051 5.9374 6.07768C6.41952 5.60486 7.03376 5.28286 7.70247 5.1524C8.37118 5.02195 9.06431 5.0889 9.69422 5.3448C10.3241 5.60069 10.8625 6.03403 11.2413 6.59001C11.6201 7.146 11.8223 7.79966 11.8223 8.46834C11.8225 8.91238 11.7334 9.35209 11.5602 9.76236C11.387 10.1726 11.1331 10.5454 10.813 10.8594C10.4928 11.1734 10.1127 11.4224 9.69443 11.5922C9.2761 11.7621 8.82775 11.8494 8.375 11.8492Z" fill="#2DB1DB"/>
</svg>
