<svg width="80" height="80" viewBox="0 0 80 80" fill="none" xmlns="http://www.w3.org/2000/svg">
<rect opacity="0.4" x="0.5" y="0.5" width="79" height="79" rx="19.5" fill="white" stroke="#8D869D"/>
<path d="M48 19H32C31.2044 19 30.4413 19.3161 29.8787 19.8787C29.3161 20.4413 29 21.2044 29 22V36C29 36.7956 29.3161 37.5587 29.8787 38.1213C30.4413 38.6839 31.2044 39 32 39H48C48.7956 39 49.5587 38.6839 50.1213 38.1213C50.6839 37.5587 51 36.7956 51 36V22C51 21.2044 50.6839 20.4413 50.1213 19.8787C49.5587 19.3161 48.7956 19 48 19ZM32 21H48C48.2652 21 48.5196 21.1054 48.7071 21.2929C48.8946 21.4804 49 21.7348 49 22V31.36L44.8 28.63C44.3042 28.222 43.6821 27.999 43.04 27.999C42.3979 27.999 41.7758 28.222 41.28 28.63L31 35.7V22C31 21.7348 31.1054 21.4804 31.2929 21.2929C31.4804 21.1054 31.7348 21 32 21ZM48 37H32.56L42.56 30.16C42.6945 30.0602 42.8575 30.0062 43.025 30.0062C43.1925 30.0062 43.3555 30.0602 43.49 30.16L49 34V36C49 36.2652 48.8946 36.5196 48.7071 36.7071C48.5196 36.8946 48.2652 37 48 37Z" fill="#8D869D"/>
<path d="M35.5 27C36.3284 27 37 26.3284 37 25.5C37 24.6716 36.3284 24 35.5 24C34.6716 24 34 24.6716 34 25.5C34 26.3284 34.6716 27 35.5 27Z" fill="#8D869D"/>
<path d="M9.76119 52.9812H12.6834V61H14.3823V52.9812H17.3045V51.5455H9.76119V52.9812ZM20.356 56.8452C20.356 55.8203 20.9931 55.2294 21.8887 55.2294C22.7658 55.2294 23.2828 55.788 23.2828 56.7436V61H24.954V56.4851C24.954 54.7724 23.9846 53.8168 22.5119 53.8168C21.4224 53.8168 20.7299 54.3107 20.4022 55.114H20.3191V51.5455H18.6848V61H20.356V56.8452ZM29.7967 61.1385C31.4494 61.1385 32.585 60.3306 32.8805 59.098L31.3201 58.9226C31.0939 59.5227 30.54 59.8366 29.8198 59.8366C28.7395 59.8366 28.024 59.1257 28.0101 57.9116H32.9498V57.3991C32.9498 54.9109 31.454 53.8168 29.709 53.8168C27.6777 53.8168 26.3528 55.3079 26.3528 57.4961C26.3528 59.7212 27.6593 61.1385 29.7967 61.1385ZM28.7257 53.0597L29.6628 51.8778L30.6 53.0597H32.0634V52.995L30.3184 51.0007H29.0119L27.2623 52.995V53.0597H28.7257ZM28.0147 56.7852C28.0655 55.8803 28.7349 55.1186 29.7321 55.1186C30.6923 55.1186 31.3386 55.8203 31.3478 56.7852H28.0147ZM34.3635 61H36.0347V56.6882C36.0347 55.8157 36.6164 55.2248 37.3366 55.2248C38.0429 55.2248 38.5276 55.7003 38.5276 56.4297V61H40.1665V56.5774C40.1665 55.7788 40.642 55.2248 41.4498 55.2248C42.1238 55.2248 42.6594 55.6218 42.6594 56.4989V61H44.3351V56.2404C44.3351 54.657 43.4211 53.8168 42.1192 53.8168C41.0898 53.8168 40.305 54.3246 39.991 55.114H39.9172C39.6448 54.3107 38.9569 53.8168 38.0013 53.8168C37.0503 53.8168 36.3394 54.3061 36.0439 55.114H35.9608V53.9091H34.3635V61ZM51.2956 61.1431C52.4082 61.1431 53.073 60.6214 53.3777 60.0259H53.4331V61H55.0396V56.2543C55.0396 54.38 53.5115 53.8168 52.1589 53.8168C50.6678 53.8168 49.5229 54.4815 49.1536 55.7741L50.714 55.9957C50.8801 55.511 51.351 55.0955 52.1681 55.0955C52.9437 55.0955 53.3684 55.4925 53.3684 56.1896V56.2173C53.3684 56.6974 52.8652 56.7205 51.6142 56.8544C50.2385 57.0021 48.9228 57.413 48.9228 59.0103C48.9228 60.4045 49.943 61.1431 51.2956 61.1431ZM51.7296 59.9151C51.0325 59.9151 50.5339 59.5966 50.5339 58.9826C50.5339 58.3409 51.0925 58.0732 51.8404 57.967C52.2789 57.907 53.1561 57.7962 53.373 57.6207V58.4563C53.373 59.2457 52.736 59.9151 51.7296 59.9151ZM52.8745 52.9119V52.4872C53.3684 52.4134 53.8532 52.1502 53.8485 51.5639C53.8532 50.7976 53.0499 50.3267 51.5265 50.3267L51.4849 51.1531C52.0204 51.1531 52.4313 51.2638 52.4267 51.5962C52.4313 51.8548 52.1866 51.9979 51.5357 52.0256L51.6003 52.9119H52.8745ZM58.3912 56.8452C58.3912 55.8203 59.0098 55.2294 59.8915 55.2294C60.7548 55.2294 61.2718 55.7972 61.2718 56.7436V61H62.943V56.4851C62.9476 54.7862 61.9782 53.8168 60.5147 53.8168C59.4529 53.8168 58.7235 54.3246 58.4004 55.114H58.3173V53.9091H56.72V61H58.3912V56.8452ZM66.313 56.8452C66.313 55.8203 66.9501 55.2294 67.8457 55.2294C68.7228 55.2294 69.2399 55.788 69.2399 56.7436V61H70.911V56.4851C70.911 54.7724 69.9416 53.8168 68.4689 53.8168C67.3794 53.8168 66.687 54.3107 66.3592 55.114H66.2761V51.5455H64.6419V61H66.313V56.8452Z" fill="#8D869D"/>
</svg>
