<svg width="14" height="9" viewBox="0 0 14 9" fill="none" xmlns="http://www.w3.org/2000/svg">
<path d="M0.260939 0.444522C0.178225 0.531026 0.1126 0.633789 0.067824 0.746925C0.0230478 0.860061 -3.14226e-07 0.981348 -3.08873e-07 1.10384C-3.0352e-07 1.22633 0.0230478 1.34761 0.067824 1.46075C0.1126 1.57389 0.178225 1.67665 0.260939 1.76315L6.16562 7.95401C6.23136 8.02307 6.30944 8.07786 6.3954 8.11525C6.48136 8.15263 6.5735 8.17187 6.66656 8.17187C6.75962 8.17187 6.85177 8.15263 6.93773 8.11525C7.02368 8.07786 7.10177 8.02307 7.1675 7.95401L13.0722 1.76315C13.4204 1.39811 13.4204 0.809566 13.0722 0.444521C12.724 0.0794768 12.1627 0.0794768 11.8145 0.444521L6.66301 5.83824L1.51151 0.437073C1.17044 0.0794792 0.602004 0.0794773 0.260939 0.444522Z" fill="#918E96"/>
</svg>
