<svg width="8" height="14" viewBox="0 0 8 14" fill="none" xmlns="http://www.w3.org/2000/svg">
<path d="M0.267306 13.1401C0.351487 13.2208 0.45149 13.2847 0.561587 13.3284C0.671685 13.3721 0.789714 13.3945 0.908914 13.3945C1.02811 13.3945 1.14614 13.3721 1.25624 13.3284C1.36634 13.2847 1.46634 13.2208 1.55052 13.1401L7.57509 7.38304C7.6423 7.31895 7.69562 7.24282 7.732 7.15901C7.76838 7.0752 7.78711 6.98536 7.78711 6.89462C7.78711 6.80389 7.76838 6.71405 7.732 6.63024C7.69562 6.54643 7.6423 6.4703 7.57509 6.40621L1.55052 0.649131C1.19528 0.309664 0.622546 0.309664 0.267306 0.649131C-0.0879336 0.988597 -0.0879336 1.5359 0.267306 1.87537L5.51615 6.89809L0.260058 11.9208C-0.0879317 12.2533 -0.0879331 12.8076 0.267306 13.1401Z" fill="#68656D"/>
</svg>
