<svg width="15" height="17" viewBox="0 0 15 17" fill="none" xmlns="http://www.w3.org/2000/svg">
<path d="M7.5918 0.9C3.90083 0.9 0.9 3.90083 0.9 7.5918V7.59418V7.59662V7.59913V7.6017V7.60433V7.60702V7.60977V7.61258V7.61545V7.61838V7.62137V7.62442V7.62753V7.6307V7.63392V7.63721V7.64055V7.64395V7.64741V7.65092V7.65449V7.65812V7.66181V7.66555V7.66934V7.6732V7.6771V7.68107V7.68509V7.68916V7.69329V7.69747V7.7017V7.70599V7.71034V7.71473V7.71918V7.72368V7.72824V7.73284V7.7375V7.74221V7.74697V7.75178V7.75664V7.76155V7.76652V7.77153V7.77659V7.7817V7.78687V7.79208V7.79734V7.80264V7.808V7.8134V7.81885V7.82435V7.8299V7.83549V7.84113V7.84682V7.85255V7.85833V7.86415V7.87002V7.87594V7.8819V7.8879V7.89395V7.90004V7.90618V7.91236V7.91858V7.92485V7.93115V7.93751V7.9439V7.95033V7.95681V7.96333V7.96989V7.97649V7.98313V7.98982V7.99654V8.0033V8.0101V8.01694V8.02382V8.03074V8.0377V8.0447V8.05173V8.05881V8.06592V8.07306V8.08025V8.08747V8.09473V8.10202V8.10935V8.11672V8.12412V8.13156V8.13903V8.14654V8.15408V8.16166V8.16927V8.17691V8.18459V8.1923V8.20004V8.20782V8.21563V8.22347V8.23134V8.23924V8.24718V8.25515V8.26315V8.27117V8.27923V8.28732V8.29544V8.30359V8.31177V8.31997V8.32821V8.33647V8.34477V8.35309V8.36144V8.36981V8.37822V8.38665V8.3951V8.40359V8.4121V8.42064V8.4292V8.43778V8.4464V8.45503V8.4637V8.47238V8.48109V8.48983V8.49859V8.50737V8.51617V8.525V8.53385V8.54273V8.55162V8.56054V8.56948V8.57844V8.58742V8.59642V8.60544V8.61449V8.62355V8.63263V8.64173V8.65086V8.66V8.66916V8.67833V8.68753V8.69674V8.70598V8.71522V8.72449V8.73377V8.74307V8.75239V8.76172V8.77107V8.78044V8.78982V8.79921V8.80862V8.81805V8.82749V8.83694V8.84641V8.85589V8.86538V8.87489V8.88441V8.89394V8.90348V8.91304V8.92261V8.93219V8.94178V8.95138V8.961V8.97062V8.98025V8.9899V8.99955V9.00921V9.01889V9.02857V9.03826V9.04796V9.05766V9.06738V9.0771V9.08683V9.09657V9.10631V9.11606V9.12582V9.13558V9.14535V9.15512V9.1649V9.17469V9.18448V9.19427V9.20407V9.21387V9.22368V9.23349V9.2433V9.25312V9.26293V9.27276V9.28258V9.29241V9.30223V9.31206V9.32189V9.33172V9.34155V9.35139V9.36122V9.37105V9.38088V9.39071V9.40054V9.41037V9.4202V9.43003V9.43985V9.44967V9.45949V9.46931V9.47912V9.48893V9.49874V9.50854V9.51834V9.52814V9.53793V9.54772V9.5575V9.56728V9.57705V9.58681V9.59657V9.60632V9.61607V9.62581V9.63554V9.64527V9.65498V9.66469V9.67439V9.68409V9.69377V9.70345V9.71311V9.72277V9.73242V9.74205V9.75168V9.7613V9.77091V9.7805V9.79009V9.79966V9.80922V9.81877V9.82831V9.83783V9.84734V9.85684V9.86633V9.8758V9.88526V9.8947V9.90413V9.91354V9.92295V9.93233V9.9417V9.95106V9.96039V9.96972V9.97902V9.98831V9.99759V10.0068V10.0161V10.0253V10.0345V10.0437V10.0529V10.062V10.0711V10.0802V10.0893V10.0984V10.1074V10.1165V10.1255V10.1345V10.1434V10.1524V10.1613V10.1702V10.1791V10.188V10.1968V10.2056V10.2144V10.2232V10.2319V10.2406V10.2493V10.258V10.2666V10.2753V10.2839V10.2924V10.301V10.3095V10.318V10.3265V10.3349V10.3433V10.3517V10.3601V10.3684V10.3767V10.385V10.3932V10.4014V10.4096V10.4178V10.4259V10.434V10.4421V10.4501V10.4581V10.4661V10.474V10.482V10.4899V10.4977V10.5055V10.5133V10.5211V10.5288V10.5365V10.5441V10.5518V10.5593V10.5669V10.5744V10.5819V10.5894V10.5968V10.6041V10.6115V10.6188V10.6261V10.6333V10.6405V10.6477V10.6548V10.6619V10.6689V10.6759V10.6829V10.6898V10.6967V10.7036V10.7104V10.7172V10.7239V10.7306V10.7373V10.7439V10.7505V10.757V10.7635V10.7699V10.7764V10.7827V10.789V10.7953V10.8016V10.8078V10.8139V10.82V10.8261V10.8321V10.8381V10.844V10.8499V10.8557V10.8615V10.8673V10.873V10.8786V10.8842V10.8898V10.8953V10.9008V10.9062V10.9116V10.9169V10.9222V10.9274V10.9326V10.9377V10.9428V10.9478V10.9528V10.9578V10.9626V10.9675V10.9722V10.977V10.9816V10.9863V10.9908V10.9954V10.9998V11.0042V11.0086V11.0129V11.0172V11.0214V11.0255V11.0296V11.0337V11.0376V11.0416V11.0454V11.0493V11.053V11.0567V11.0604V11.064V11.0675V11.071V11.0744V11.0778V11.0811V11.0843V11.0875V11.0906V11.0937V11.0967V11.0997V11.1026V11.1054V11.1082V11.1109V11.1135V11.1161V11.1186V11.1211V11.1235V11.1259V11.1281V11.1304V11.1325V11.1346V11.1366V11.1386V11.1405V11.1423V11.1441V11.1458V11.1475V11.149V11.1506V11.152V11.1534V11.1547V11.1559V11.1571V11.1582V11.1593V11.1603V11.1612V11.162V11.1628V11.1635V11.1642V11.1647V11.1652V11.1657V11.166C0.9 11.9478 1.53657 12.5844 2.31836 12.5844H2.76524C2.97808 13.1006 3.48625 13.4633 4.07617 13.4633C4.85796 13.4633 5.49453 12.8267 5.49453 12.0449V8.4707C5.49453 7.68891 4.85796 7.05234 4.07617 7.05234C3.48332 7.05234 2.97781 7.41516 2.76522 7.93125H2.31836C2.20076 7.93125 2.08754 7.94535 1.97891 7.9725V7.5918C1.97891 4.49761 4.49761 1.97891 7.5918 1.97891C10.686 1.97891 13.2047 4.49761 13.2047 7.5918V7.9725C13.096 7.94535 12.9828 7.93125 12.8652 7.93125H12.4184C12.2055 7.41505 11.6973 7.05234 11.1074 7.05234C10.3256 7.05234 9.68906 7.68891 9.68906 8.4707V12.0449C9.68906 12.8267 10.3256 13.4633 11.1074 13.4633C11.1833 13.4633 11.2581 13.457 11.3312 13.4454C11.1358 13.858 10.7151 14.1422 10.2285 14.1422H8.90273C8.68988 13.626 8.18172 13.2633 7.5918 13.2633C6.81001 13.2633 6.17344 13.8998 6.17344 14.6816C6.17344 15.4634 6.81001 16.1 7.5918 16.1C8.18465 16.1 8.69016 15.7372 8.90275 15.2211H10.2285C11.4966 15.2211 12.5258 14.1919 12.5258 12.9238V12.5844H12.8652C13.647 12.5844 14.2836 11.9478 14.2836 11.166V11.1657V11.1652V11.1647V11.1642V11.1635V11.1628V11.162V11.1612V11.1603V11.1593V11.1582V11.1571V11.1559V11.1547V11.1534V11.152V11.1506V11.149V11.1475V11.1458V11.1441V11.1423V11.1405V11.1386V11.1366V11.1346V11.1325V11.1304V11.1281V11.1259V11.1235V11.1211V11.1186V11.1161V11.1135V11.1109V11.1082V11.1054V11.1026V11.0997V11.0967V11.0937V11.0906V11.0875V11.0843V11.0811V11.0778V11.0744V11.071V11.0675V11.064V11.0604V11.0567V11.053V11.0493V11.0454V11.0416V11.0376V11.0337V11.0296V11.0255V11.0214V11.0172V11.0129V11.0086V11.0042V10.9998V10.9954V10.9908V10.9863V10.9816V10.977V10.9722V10.9675V10.9626V10.9578V10.9528V10.9478V10.9428V10.9377V10.9326V10.9274V10.9222V10.9169V10.9116V10.9062V10.9008V10.8953V10.8898V10.8842V10.8786V10.873V10.8673V10.8615V10.8557V10.8499V10.844V10.8381V10.8321V10.8261V10.82V10.8139V10.8078V10.8016V10.7953V10.789V10.7827V10.7764V10.7699V10.7635V10.757V10.7505V10.7439V10.7373V10.7306V10.7239V10.7172V10.7104V10.7036V10.6967V10.6898V10.6829V10.6759V10.6689V10.6619V10.6548V10.6477V10.6405V10.6333V10.6261V10.6188V10.6115V10.6041V10.5968V10.5894V10.5819V10.5744V10.5669V10.5593V10.5518V10.5441V10.5365V10.5288V10.5211V10.5133V10.5055V10.4977V10.4899V10.482V10.474V10.4661V10.4581V10.4501V10.4421V10.434V10.4259V10.4178V10.4096V10.4014V10.3932V10.385V10.3767V10.3684V10.3601V10.3517V10.3433V10.3349V10.3265V10.318V10.3095V10.301V10.2924V10.2839V10.2753V10.2666V10.258V10.2493V10.2406V10.2319V10.2232V10.2144V10.2056V10.1968V10.188V10.1791V10.1702V10.1613V10.1524V10.1434V10.1345V10.1255V10.1165V10.1074V10.0984V10.0893V10.0802V10.0711V10.062V10.0529V10.0437V10.0345V10.0253V10.0161V10.0068V9.99759V9.98831V9.97902V9.96972V9.96039V9.95106V9.9417V9.93233V9.92295V9.91354V9.90413V9.8947V9.88526V9.8758V9.86633V9.85684V9.84734V9.83783V9.82831V9.81877V9.80922V9.79966V9.79009V9.7805V9.77091V9.7613V9.75168V9.74205V9.73242V9.72277V9.71311V9.70345V9.69377V9.68409V9.67439V9.66469V9.65498V9.64527V9.63554V9.62581V9.61607V9.60632V9.59657V9.58681V9.57705V9.56728V9.5575V9.54772V9.53793V9.52814V9.51834V9.50854V9.49874V9.48893V9.47912V9.46931V9.45949V9.44967V9.43985V9.43003V9.4202V9.41037V9.40054V9.39071V9.38088V9.37105V9.36122V9.35139V9.34155V9.33172V9.32189V9.31206V9.30223V9.29241V9.28258V9.27276V9.26293V9.25312V9.2433V9.23349V9.22368V9.21387V9.20407V9.19427V9.18448V9.17469V9.1649V9.15512V9.14535V9.13558V9.12582V9.11606V9.10631V9.09657V9.08683V9.0771V9.06738V9.05766V9.04796V9.03826V9.02857V9.01889V9.00921V8.99955V8.9899V8.98025V8.97062V8.961V8.95138V8.94178V8.93219V8.92261V8.91304V8.90348V8.89394V8.88441V8.87489V8.86538V8.85589V8.84641V8.83694V8.82749V8.81805V8.80862V8.79921V8.78982V8.78044V8.77107V8.76172V8.75239V8.74307V8.73377V8.72449V8.71522V8.70598V8.69674V8.68753V8.67833V8.66916V8.66V8.65086V8.64173V8.63263V8.62355V8.61449V8.60544V8.59642V8.58742V8.57844V8.56948V8.56054V8.55162V8.54273V8.53385V8.525V8.51617V8.50737V8.49859V8.48983V8.48109V8.47238V8.4637V8.45503V8.4464V8.43778V8.4292V8.42064V8.4121V8.40359V8.3951V8.38665V8.37822V8.36981V8.36144V8.35309V8.34477V8.33647V8.32821V8.31997V8.31177V8.30359V8.29544V8.28732V8.27923V8.27117V8.26315V8.25515V8.24718V8.23924V8.23134V8.22347V8.21563V8.20782V8.20004V8.1923V8.18459V8.17691V8.16927V8.16166V8.15408V8.14654V8.13903V8.13156V8.12412V8.11672V8.10935V8.10202V8.09473V8.08747V8.08025V8.07306V8.06592V8.05881V8.05173V8.0447V8.0377V8.03074V8.02382V8.01694V8.0101V8.0033V7.99654V7.98982V7.98313V7.97649V7.96989V7.96333V7.95681V7.95033V7.9439V7.93751V7.93115V7.92485V7.91858V7.91236V7.90618V7.90004V7.89395V7.8879V7.8819V7.87594V7.87002V7.86415V7.85833V7.85255V7.84682V7.84113V7.83549V7.8299V7.82435V7.81885V7.8134V7.808V7.80264V7.79734V7.79208V7.78687V7.7817V7.77659V7.77153V7.76652V7.76155V7.75664V7.75178V7.74697V7.74221V7.7375V7.73284V7.72824V7.72368V7.71918V7.71473V7.71034V7.70599V7.7017V7.69747V7.69329V7.68916V7.68509V7.68107V7.6771V7.6732V7.66934V7.66555V7.66181V7.65812V7.65449V7.65092V7.64741V7.64395V7.64055V7.63721V7.63392V7.6307V7.62753V7.62442V7.62137V7.61838V7.61545V7.61258V7.60977V7.60702V7.60433V7.6017V7.59913V7.59662V7.59418V7.5918C14.2836 3.90083 11.2828 0.9 7.5918 0.9ZM3.73672 8.4707C3.73672 8.28277 3.88824 8.13125 4.07617 8.13125C4.26411 8.13125 4.41563 8.28277 4.41563 8.4707V12.0449C4.41563 12.2329 4.26411 12.3844 4.07617 12.3844C3.88824 12.3844 3.73672 12.2329 3.73672 12.0449V8.4707ZM2.31836 9.01016H2.65781V11.5055H2.31836C2.13042 11.5055 1.97891 11.354 1.97891 11.166V9.34961C1.97891 9.16167 2.13042 9.01016 2.31836 9.01016ZM7.5918 15.0211C7.40386 15.0211 7.25234 14.8696 7.25234 14.6816C7.25234 14.4937 7.40386 14.3422 7.5918 14.3422C7.77973 14.3422 7.93125 14.4937 7.93125 14.6816C7.93125 14.8696 7.77973 15.0211 7.5918 15.0211ZM11.4469 12.0449C11.4469 12.2329 11.2954 12.3844 11.1074 12.3844C10.9195 12.3844 10.768 12.2329 10.768 12.0449V8.4707C10.768 8.28277 10.9195 8.13125 11.1074 8.13125C11.2954 8.13125 11.4469 8.28277 11.4469 8.4707V12.0449ZM13.2047 11.166C13.2047 11.354 13.0532 11.5055 12.8652 11.5055H12.5258V9.01016H12.8652C13.0532 9.01016 13.2047 9.16167 13.2047 9.34961V11.166Z" fill="#68656D" stroke="#68656D" stroke-width="0.2"/>
</svg>
