<svg width="16" height="16" viewBox="0 0 16 16" fill="none" xmlns="http://www.w3.org/2000/svg">
<path d="M12.8724 2.66602H10.6673C10.6673 1.56322 9.85494 0.666016 8.66732 0.666016H7.33398C6.14636 0.666016 5.33398 1.56322 5.33398 2.66602H3.12886C2.13916 2.66602 1.33398 3.41368 1.33398 4.33268V5.99935C1.33398 6.36752 1.65545 6.66602 2.05193 6.66602H2.66732L3.33398 13.3644C3.38877 14.4326 4.18239 15.3327 5.33398 15.3327H10.6673C11.819 15.3327 12.6126 14.4326 12.6673 13.3644L13.334 6.66602H14.0006C14.3971 6.66602 14.6673 6.36752 14.6673 5.99935V4.33268C14.6673 3.41368 13.8621 2.66602 12.8724 2.66602ZM6.66732 2.66602C6.66732 2.29843 6.93812 1.99935 7.33398 1.99935H8.66732C9.06318 1.99935 9.33398 2.29843 9.33398 2.66602H6.66732ZM2.66732 4.66602C2.66732 4.33268 3.00065 3.99935 3.33398 3.99935H12.6673C13.0006 3.99935 13.334 4.33268 13.334 4.66602V5.33268C13.1127 5.33268 3.58418 5.33268 2.66732 5.33268V4.66602ZM11.334 13.3327C11.3157 13.6887 11.0511 13.9993 10.6673 13.9993H5.33398C4.95011 13.9993 4.68554 13.6887 4.66732 13.3327L4.00065 6.66602H12.0006L11.334 13.3327Z" fill="#68656D"/>
<rect x="6" y="8" width="1.33333" height="4" rx="0.666667" fill="#68656D"/>
<rect x="8.66602" y="8" width="1.33333" height="4" rx="0.666667" fill="#68656D"/>
</svg>
